<?xml version="1.0" encoding="utf-8"?>
<!-- Generator: Adobe Illustrator 16.0.0, SVG Export Plug-In . SVG Version: 6.00 Build 0)  -->
<!DOCTYPE svg PUBLIC "-//W3C//DTD SVG 1.1//EN" "http://www.w3.org/Graphics/SVG/1.1/DTD/svg11.dtd">
<svg version="1.1" id="Layer_1" xmlns="http://www.w3.org/2000/svg" xmlns:xlink="http://www.w3.org/1999/xlink" x="0px" y="0px"
	 width="841.89px" height="511.723px" viewBox="0 0 841.89 511.723" enable-background="new 0 0 841.89 511.723"
	 xml:space="preserve">
<path fill-rule="evenodd" clip-rule="evenodd" fill="#69C6B6" d="M823.224,67.073c-2.916-0.462-3.622,2.021-5.56,0
	c0.744-3.213-1.38-3.561-0.927-6.484c-2.459-0.009-5.289,0.351-6.482-0.927c-1.543-9.883-5.467-17.383-7.412-26.864
	c-3.662-0.042-5.371-2.039-8.338-2.778c-2.28,2.041-4.062,4.583-7.409,5.558c-2.613-0.167-1.156-4.403-4.633-3.706
	c-3.646,8.94-10.137,23.078-5.558,34.274c-2.38,3.797-4.86,7.492-4.631,13.896c-3.325-0.768-4.482,2.088-6.485,0
	c-0.919,2.786-0.685,6.725-3.705,7.41c-9.606,1.701-20.334,6.012-30.57,8.338c-4.903,1.115-10.008,0.3-13.895,2.779
	c-4.494,2.865-6.05,9.47-9.265,13.895c-2.23,3.072-6.835,3.546-5.558,8.337c4.278,1.483,3.475,6.446,3.706,9.264
	c-8.741,12.596-25,6.46-38.907,12.968c0.262,4.37,3.053,6.211,4.632,9.265c-11.939,16.159-29.151,27.046-48.169,36.126
	c-2.938-3.855-12.247-1.339-13.896-6.484c4.816-4.61,3.888-17.233,11.115-16.675c-0.896-12.073-2.48-23.458-10.188-28.717
	c-6.069,0.725-5.24,8.347-10.19,10.19c-3.692,0.605-2.655-3.522-2.78-6.485c10.613-2.738,3.494-19.115,5.56-24.085
	c-2.444,0.283-2.39-1.933-2.779-3.705c-9.983-0.043-18.521-11.125-24.086-0.927c-0.814,2.977,3.054,1.27,2.779,3.706
	c-3.204-0.733-3.911,1.03-5.558,1.852c-0.7,5.64,2.524,9.447-2.779,10.191c-1.416-4.449,3.935-7.941,0-9.265
	c-8.51,9.312-8.966,19.217-10.189,35.203c10.326,9.985,7.256,34.98-6.485,38.905c-19.402-17.437-8.525-53.318-3.704-73.181
	c-3.763,4.586-7.643,13.961-12.043,14.822c3.113-8.928,8.76-15.325,11.116-25.011c7.938,2.023,12.454-3.96,22.231-6.484
	c8.233,1.357,15.508-0.073,21.307-0.926c-4.195-0.746-5.33-4.552-4.632-10.191c-4.946,0.139-8.64,3.865-12.968,1.853
	c0-1.853,0-3.706,0-5.558c-13.488,1.501-20.481,10.199-32.424,8.338c-1.565-7.508-12.173-9.044-14.821-5.559
	c1.425-5.986,6.264-8.556,9.265-12.968c-9.154,0.111-12.379,6.149-16.676,11.115c-6.334,3.547-13.699,6.062-19.452,10.19
	c-0.991-3.5-5.495,0.033-6.485-1.853c0.823-1.955,2.82-2.737,2.779-5.558c-4.747-1.755-10.848,7.516-17.601,3.706
	c6.755-3.749,9.515-12.166,15.747-16.674c5.236-3.789,12.855-3.05,16.676-9.265c-5.456-1.076-14.154-0.381-17.602-3.706
	c-4.786,4.93-14.468,4.417-15.747-1.852c-7.963,2.448-14.688-8.909-22.232-1.853c-3.84-1.411-6.688-3.81-12.044-3.705
	c-4.039-2.755-0.243-13.343-7.409-12.969c-2.125,0.962,0.438,6.614-1.854,7.411C298.815,54.816,182.994,31.068,78.438,4.083
	c4.306,6.784,0.404,14.982,1.853,20.379c-4.409-3.507-2.218-6.429-1.853-9.264c-3.728-0.639-2.275,3.902-5.558,3.706
	c-9.527-1.589-14.768-7.464-22.233-11.115c-0.668,8.635-1.457,23.075,2.779,29.642c-1.614-0.068-2.881,0.208-3.706,0.926
	c-0.99,3.461,2.301,2.642,1.854,5.558c-3.829,2.431-5.207,7.209-0.927,9.266c-2.974-0.812-1.92,2.401-3.705,2.778
	c-6.432,21.049-13.943,41.019-25.938,56.507c0.25,5.501-1.01,9.489-1.853,13.896c5.549,14.359-6.745,25.641-11.116,36.126
	c10.453,6.64,0.734,18.848,1.853,27.79c0.484,3.871,7.103,9.722,7.411,15.75c0.301,5.886,0.862,7.713,4.632,11.115
	c-4.902,7.936-0.117,18.231,5.559,21.306c-0.513,3.193-4.259,3.153-4.632,6.485c0.376,12.169,12.18,21.831,12.969,32.422
	c0.364,4.886-4.437,8.422-0.926,12.969c16.208-0.46,17.967,13.528,29.644,17.601c0.55,2.955-1.739,2.865,0,4.632
	c10.788,2.489,14.625,11.93,13.895,25.937c11.36,4.081,26.985,3.894,39.833,6.485c-0.012,1.841-2.527,1.179-1.853,3.705
	c14.566,7.184,28.277,17.115,41.686,25.012c17.281,10.178,37.69,12.654,63.918,15.749c0.472-3.235,0.417-6.995,1.853-9.264
	c9.044,1.454,17.904,3.092,27.792,3.704c6.414,8.099,11.305,17.722,21.305,22.232c5.232,5.595,3.576,11.676,5.559,19.455
	c2.623,10.286,15.656,12.695,24.085,18.525c6.62-4.187,5.78-15.834,15.747-16.673c19.616,2.306,29.206,14.641,32.423,33.347
	c6.676,3.514,8.386,11.993,14.82,15.749c-4.089,23.308,22.177,28.996,37.981,32.422c-2.925-12.333-2.28-24.53-0.927-37.98
	c15.633-10.613,34.683-17.811,47.244-31.495c13.189-11.025,36.407-2.857,50.023-2.78c-0.525-5.209-6.197-0.162-7.411-3.705
	c5.808-5.377,10.43,3.653,15.747,4.633c0.209,1.75-1.044,2.043-0.926,3.705c3.225,1.405,5.745,3.517,10.189,3.705
	c2.293-1.722,3.482-4.546,7.412-4.632c3.058,1.845-2.297,3.956,0,4.632c7.344-2.28,1.649-7.062,7.409-9.264
	c1.397,4.405,13.862,10.278,14.821,3.706c-2.599-3.577-10.276-2.074-12.042-6.485c2.903-2.439,6.566-3.26,4.633-10.189
	c-4.113-0.406-2.293,5.118-7.412,3.705c4.128-11.026,13.785-9.633,26.864-10.189c1.827-1.57,0.348-6.445,3.706-6.485
	c1.944,1.528,4.482,6.78,0.926,8.339c15.311-5.003,37.61-9.103,45.392,5.557c8.209-0.685,15.686-4.072,16.675-9.263
	c15.857-1.654,14.839,13.568,27.79,14.821c7.759,6.324-1.08,23.575,6.484,29.644c2.271-2.586-0.71-6.238,0-6.484
	c1.387,0.157,3.419-0.332,3.705,0.927c0.383,4.396-3.497,4.53-3.705,8.336c4.82,5.37,8.715,11.663,12.042,18.527
	c2.618,0.766,2.4-1.306,4.633-0.927c1.892,3.048,2.883,6.998,4.631,10.19c8.135-1.861,11.602,7.033,13.895,13.896
	c3.518-1.141,9.586-4.586,12.043-3.705c-1.233,5.572-10.506,8.003-10.189,12.043c6.453-4.664,12.38-9.854,13.896-19.454
	c-3.293-1.44-0.559,3.146-2.78,2.778c7-24.28-6.381-40.91-14.821-55.58c0.013-1.84,2.527-1.179,1.853-3.706
	c-14.016-12.558-28.809-37.696-20.379-62.065c1.96-5.666,8.227-8.845,8.337-14.822c8.822-2.912,11.118-12.348,18.527-16.673
	c-0.527-12.261,6.142-17.327,16.674-18.528c-0.821-18.343,22.613-14.847,23.159-26.863c-0.726,1.627-8.018,2.756-9.264,0
	c3.864,3.089,6.46-4.969,2.779-6.484c5.99,1.722,12.41-0.967,12.969-7.411c-1.479-2.532-5.653,2.163-7.411-0.926
	c3.297,0.208,5.551-0.626,6.485-2.778l-0.463-1.392l1.389,0.465c-3.935-5.947-7.079-12.684-10.19-19.454
	c-2.104,0.008-4.47-0.246-5.859,0.476c3.68-3.059-4.254-6.656-2.478-8.812c0.931-0.004,1.103,0.75,1.853,0.926
	c-0.535-6.876-2.597-12.226-7.41-14.823c2.491,0.639,1.79-1.914,2.779-2.778c-6.435-4.121-7.436-21.305-0.927-22.232
	c-4.2,3.875,2.681,8.506-1.853,12.969c4.154,0.055,1.527,1.317,1.853,6.484c4.93,0.319,3.915,6.583,7.41,8.336
	c1.356-3.295-2.977-5.55-0.926-6.484c9.724,3.418-1.779,16.968,5.558,22.232c1.843-11.952,10.422-23.168,5.558-36.127
	c-6.493-1.844-7.422-9.252-11.115-13.895c2.512,3.662,6.065,6.284,12.042,6.484c0.379,2.231-1.691,2.013-0.927,4.631
	c6.96-6.576,12.454-18.687,9.265-32.422c-1.096-2.281-3.499,1.898-4.632-0.925c1.889-0.272,1.816-2.507,3.705-2.779l-0.463-2.501
	l1.39-2.13c6.543-13.22,25.63-13.895,37.054-22.232c1.156-2.782-0.442-4.634,3.705-5.559c0.528,2.998-0.28,4.66-1.853,5.559
	c4.206-2.279,6.228-6.743,12.043-7.411c-0.139-4.803-1.438-8.442-6.484-8.337c0.438,2.958,4.75,2.043,4.632,5.558
	c-8.017,7.098-9.65-8.619-15.748-6.484c0.569-8.172-0.478-19.356,3.705-31.496c5.157,0.889,8.629-4.75,12.969-7.411
	c0.679-3.211-1.012-8.786,0-9.264c1.087,1.384,3.85,1.092,3.705,3.706c-2.193,1.396-3.42,1.407-1.853,4.632
	c4.664-1.112,2.507-7.465,5.56-10.189c-0.26,2.419-0.313,4.636,2.778,3.705c1.755-5.455-1.121-2.589-1.853-5.558
	C818.164,88.127,831.802,74.005,823.224,67.073z"/>
</svg>
